<?xml version="1.0" encoding="UTF-8" standalone="no"?>
<!-- Created with Inkscape (http://www.inkscape.org/) -->

<svg
   width="210mm"
   height="297mm"
   viewBox="0 0 210 297"
   version="1.1"
   id="svg5"
   inkscape:version="1.2.1 (9c6d41e410, 2022-07-14)"
   sodipodi:docname="grille.svg"
   xmlns:inkscape="http://www.inkscape.org/namespaces/inkscape"
   xmlns:sodipodi="http://sodipodi.sourceforge.net/DTD/sodipodi-0.dtd"
   xmlns="http://www.w3.org/2000/svg"
   xmlns:svg="http://www.w3.org/2000/svg">
  <sodipodi:namedview
     id="namedview7"
     pagecolor="#ffffff"
     bordercolor="#000000"
     borderopacity="0.25"
     inkscape:showpageshadow="2"
     inkscape:pageopacity="0.0"
     inkscape:pagecheckerboard="0"
     inkscape:deskcolor="#d1d1d1"
     inkscape:document-units="mm"
     showgrid="false"
     inkscape:zoom="0.914906"
     inkscape:cx="402.77362"
     inkscape:cy="567.81789"
     inkscape:window-width="2560"
     inkscape:window-height="1371"
     inkscape:window-x="2391"
     inkscape:window-y="-9"
     inkscape:window-maximized="1"
     inkscape:current-layer="layer1" />
  <defs
     id="defs2">
    <rect
       x="56.692905"
       y="175.97436"
       width="679.37045"
       height="46.050977"
       id="rect6583" />
    <inkscape:path-effect
       effect="tiling"
       id="path-effect4189"
       is_visible="true"
       lpeversion="1"
       unit="px"
       seed="1;1"
       lpesatellites=""
       num_rows="20"
       num_cols="20"
       gapx="0"
       gapy="0"
       offset="0"
       offset_type="false"
       scale="0"
       rotate="0"
       mirrorrowsx="false"
       mirrorrowsy="false"
       mirrorcolsx="false"
       mirrorcolsy="false"
       mirrortrans="false"
       shrink_interp="false"
       split_items="false"
       link_styles="false"
       interpolate_scalex="false"
       interpolate_scaley="true"
       interpolate_rotatex="false"
       interpolate_rotatey="true"
       random_scale="false"
       random_rotate="false"
       random_gap_y="false"
       random_gap_x="false"
       transformorigin="" />
    <rect
       x="56.692905"
       y="175.97437"
       width="47.028584"
       height="611.05397"
       id="rect6583-9" />
  </defs>
  <g
     inkscape:label="Calque 1"
     inkscape:groupmode="layer"
     id="layer1">
    <path
       style="fill:none;stroke:#000000;stroke-width:6.24869;stroke-dasharray:none;stroke-opacity:1"
       id="rect4187"
       width="112.20643"
       height="139.10126"
       x="44.246349"
       y="41.932812"
       inkscape:path-effect="#path-effect4189"
       class="UnoptimicedTransforms"
       d="M 44.246349,41.932812 H 156.45278 V 181.03407 H 44.246349 Z m 112.206431,0 H 268.65921 V 181.03407 H 156.45278 Z m 112.20643,0 H 380.86563 V 181.03407 H 268.65921 Z m 112.20642,0 H 493.07206 V 181.03407 H 380.86563 Z m 112.20643,0 H 605.27849 V 181.03407 H 493.07206 Z m 112.20643,0 H 717.48492 V 181.03407 H 605.27849 Z m 112.20643,0 H 829.69135 V 181.03407 H 717.48492 Z m 112.20643,0 H 941.89778 V 181.03407 H 829.69135 Z m 112.20643,0 H 1054.1042 V 181.03407 H 941.89778 Z m 112.20642,0 h 112.2064 V 181.03407 h -112.2064 z m 112.2064,0 h 112.2065 V 181.03407 h -112.2065 z m 112.2065,0 h 112.2064 V 181.03407 h -112.2064 z m 112.2064,0 h 112.2064 V 181.03407 h -112.2064 z m 112.2064,0 h 112.2064 V 181.03407 h -112.2064 z m 112.2064,0 h 112.2065 V 181.03407 h -112.2065 z m 112.2065,0 h 112.2064 V 181.03407 h -112.2064 z m 112.2064,0 h 112.2064 V 181.03407 h -112.2064 z m 112.2064,0 h 112.2065 V 181.03407 h -112.2065 z m 112.2065,0 h 112.2064 V 181.03407 h -112.2064 z m 112.2064,0 h 112.2064 V 181.03407 H 2176.1685 Z M 44.246349,181.03407 H 156.45278 V 320.13533 H 44.246349 Z m 112.206431,0 H 268.65921 V 320.13533 H 156.45278 Z m 112.20643,0 H 380.86563 V 320.13533 H 268.65921 Z m 112.20642,0 H 493.07206 V 320.13533 H 380.86563 Z m 112.20643,0 H 605.27849 V 320.13533 H 493.07206 Z m 112.20643,0 H 717.48492 V 320.13533 H 605.27849 Z m 112.20643,0 H 829.69135 V 320.13533 H 717.48492 Z m 112.20643,0 H 941.89778 V 320.13533 H 829.69135 Z m 112.20643,0 H 1054.1042 V 320.13533 H 941.89778 Z m 112.20642,0 h 112.2064 v 139.10126 h -112.2064 z m 112.2064,0 h 112.2065 v 139.10126 h -112.2065 z m 112.2065,0 h 112.2064 v 139.10126 h -112.2064 z m 112.2064,0 h 112.2064 v 139.10126 h -112.2064 z m 112.2064,0 h 112.2064 v 139.10126 h -112.2064 z m 112.2064,0 h 112.2065 v 139.10126 h -112.2065 z m 112.2065,0 h 112.2064 v 139.10126 h -112.2064 z m 112.2064,0 h 112.2064 v 139.10126 h -112.2064 z m 112.2064,0 h 112.2065 v 139.10126 h -112.2065 z m 112.2065,0 h 112.2064 v 139.10126 h -112.2064 z m 112.2064,0 h 112.2064 V 320.13533 H 2176.1685 Z M 44.246349,320.13533 H 156.45278 V 459.23658 H 44.246349 Z m 112.206431,0 H 268.65921 V 459.23658 H 156.45278 Z m 112.20643,0 H 380.86563 V 459.23658 H 268.65921 Z m 112.20642,0 H 493.07206 V 459.23658 H 380.86563 Z m 112.20643,0 H 605.27849 V 459.23658 H 493.07206 Z m 112.20643,0 H 717.48492 V 459.23658 H 605.27849 Z m 112.20643,0 H 829.69135 V 459.23658 H 717.48492 Z m 112.20643,0 H 941.89778 V 459.23658 H 829.69135 Z m 112.20643,0 H 1054.1042 V 459.23658 H 941.89778 Z m 112.20642,0 h 112.2064 v 139.10125 h -112.2064 z m 112.2064,0 h 112.2065 v 139.10125 h -112.2065 z m 112.2065,0 h 112.2064 v 139.10125 h -112.2064 z m 112.2064,0 h 112.2064 v 139.10125 h -112.2064 z m 112.2064,0 h 112.2064 v 139.10125 h -112.2064 z m 112.2064,0 h 112.2065 v 139.10125 h -112.2065 z m 112.2065,0 h 112.2064 v 139.10125 h -112.2064 z m 112.2064,0 h 112.2064 v 139.10125 h -112.2064 z m 112.2064,0 h 112.2065 v 139.10125 h -112.2065 z m 112.2065,0 h 112.2064 v 139.10125 h -112.2064 z m 112.2064,0 h 112.2064 V 459.23658 H 2176.1685 Z M 44.246349,459.23658 H 156.45278 V 598.33784 H 44.246349 Z m 112.206431,0 H 268.65921 V 598.33784 H 156.45278 Z m 112.20643,0 H 380.86563 V 598.33784 H 268.65921 Z m 112.20642,0 H 493.07206 V 598.33784 H 380.86563 Z m 112.20643,0 H 605.27849 V 598.33784 H 493.07206 Z m 112.20643,0 H 717.48492 V 598.33784 H 605.27849 Z m 112.20643,0 H 829.69135 V 598.33784 H 717.48492 Z m 112.20643,0 H 941.89778 V 598.33784 H 829.69135 Z m 112.20643,0 H 1054.1042 V 598.33784 H 941.89778 Z m 112.20642,0 h 112.2064 v 139.10126 h -112.2064 z m 112.2064,0 h 112.2065 v 139.10126 h -112.2065 z m 112.2065,0 h 112.2064 v 139.10126 h -112.2064 z m 112.2064,0 h 112.2064 v 139.10126 h -112.2064 z m 112.2064,0 h 112.2064 v 139.10126 h -112.2064 z m 112.2064,0 h 112.2065 v 139.10126 h -112.2065 z m 112.2065,0 h 112.2064 v 139.10126 h -112.2064 z m 112.2064,0 h 112.2064 v 139.10126 h -112.2064 z m 112.2064,0 h 112.2065 v 139.10126 h -112.2065 z m 112.2065,0 h 112.2064 v 139.10126 h -112.2064 z m 112.2064,0 h 112.2064 V 598.33784 H 2176.1685 Z M 44.246349,598.33784 H 156.45278 V 737.4391 H 44.246349 Z m 112.206431,0 H 268.65921 V 737.4391 H 156.45278 Z m 112.20643,0 H 380.86563 V 737.4391 H 268.65921 Z m 112.20642,0 H 493.07206 V 737.4391 H 380.86563 Z m 112.20643,0 H 605.27849 V 737.4391 H 493.07206 Z m 112.20643,0 H 717.48492 V 737.4391 H 605.27849 Z m 112.20643,0 H 829.69135 V 737.4391 H 717.48492 Z m 112.20643,0 H 941.89778 V 737.4391 H 829.69135 Z m 112.20643,0 H 1054.1042 V 737.4391 H 941.89778 Z m 112.20642,0 h 112.2064 V 737.4391 h -112.2064 z m 112.2064,0 h 112.2065 V 737.4391 h -112.2065 z m 112.2065,0 h 112.2064 V 737.4391 h -112.2064 z m 112.2064,0 h 112.2064 V 737.4391 h -112.2064 z m 112.2064,0 h 112.2064 V 737.4391 h -112.2064 z m 112.2064,0 h 112.2065 V 737.4391 h -112.2065 z m 112.2065,0 h 112.2064 V 737.4391 h -112.2064 z m 112.2064,0 h 112.2064 V 737.4391 h -112.2064 z m 112.2064,0 h 112.2065 V 737.4391 h -112.2065 z m 112.2065,0 h 112.2064 V 737.4391 h -112.2064 z m 112.2064,0 h 112.2064 V 737.4391 H 2176.1685 Z M 44.246349,737.4391 H 156.45278 V 876.54036 H 44.246349 Z m 112.206431,0 H 268.65921 V 876.54036 H 156.45278 Z m 112.20643,0 H 380.86563 V 876.54036 H 268.65921 Z m 112.20642,0 H 493.07206 V 876.54036 H 380.86563 Z m 112.20643,0 H 605.27849 V 876.54036 H 493.07206 Z m 112.20643,0 H 717.48492 V 876.54036 H 605.27849 Z m 112.20643,0 H 829.69135 V 876.54036 H 717.48492 Z m 112.20643,0 H 941.89778 V 876.54036 H 829.69135 Z m 112.20643,0 H 1054.1042 V 876.54036 H 941.89778 Z m 112.20642,0 h 112.2064 v 139.10126 h -112.2064 z m 112.2064,0 h 112.2065 v 139.10126 h -112.2065 z m 112.2065,0 h 112.2064 v 139.10126 h -112.2064 z m 112.2064,0 h 112.2064 v 139.10126 h -112.2064 z m 112.2064,0 h 112.2064 v 139.10126 h -112.2064 z m 112.2064,0 h 112.2065 v 139.10126 h -112.2065 z m 112.2065,0 h 112.2064 v 139.10126 h -112.2064 z m 112.2064,0 h 112.2064 v 139.10126 h -112.2064 z m 112.2064,0 h 112.2065 v 139.10126 h -112.2065 z m 112.2065,0 h 112.2064 v 139.10126 h -112.2064 z m 112.2064,0 h 112.2064 V 876.54036 H 2176.1685 Z M 44.246349,876.54036 H 156.45278 V 1015.6416 H 44.246349 Z m 112.206431,0 H 268.65921 V 1015.6416 H 156.45278 Z m 112.20643,0 H 380.86563 V 1015.6416 H 268.65921 Z m 112.20642,0 H 493.07206 V 1015.6416 H 380.86563 Z m 112.20643,0 H 605.27849 V 1015.6416 H 493.07206 Z m 112.20643,0 H 717.48492 V 1015.6416 H 605.27849 Z m 112.20643,0 H 829.69135 V 1015.6416 H 717.48492 Z m 112.20643,0 H 941.89778 V 1015.6416 H 829.69135 Z m 112.20643,0 H 1054.1042 V 1015.6416 H 941.89778 Z m 112.20642,0 h 112.2064 v 139.10124 h -112.2064 z m 112.2064,0 h 112.2065 v 139.10124 h -112.2065 z m 112.2065,0 h 112.2064 v 139.10124 h -112.2064 z m 112.2064,0 h 112.2064 v 139.10124 h -112.2064 z m 112.2064,0 h 112.2064 v 139.10124 h -112.2064 z m 112.2064,0 h 112.2065 v 139.10124 h -112.2065 z m 112.2065,0 h 112.2064 v 139.10124 h -112.2064 z m 112.2064,0 h 112.2064 v 139.10124 h -112.2064 z m 112.2064,0 h 112.2065 v 139.10124 h -112.2065 z m 112.2065,0 h 112.2064 v 139.10124 h -112.2064 z m 112.2064,0 h 112.2064 V 1015.6416 H 2176.1685 Z M 44.246349,1015.6416 H 156.45278 v 139.1013 H 44.246349 Z m 112.206431,0 h 112.20643 v 139.1013 H 156.45278 Z m 112.20643,0 h 112.20642 v 139.1013 H 268.65921 Z m 112.20642,0 h 112.20643 v 139.1013 H 380.86563 Z m 112.20643,0 h 112.20643 v 139.1013 H 493.07206 Z m 112.20643,0 h 112.20643 v 139.1013 H 605.27849 Z m 112.20643,0 h 112.20643 v 139.1013 H 717.48492 Z m 112.20643,0 h 112.20643 v 139.1013 H 829.69135 Z m 112.20643,0 h 112.20642 v 139.1013 H 941.89778 Z m 112.20642,0 h 112.2064 v 139.1013 h -112.2064 z m 112.2064,0 h 112.2065 v 139.1013 h -112.2065 z m 112.2065,0 h 112.2064 v 139.1013 h -112.2064 z m 112.2064,0 h 112.2064 v 139.1013 h -112.2064 z m 112.2064,0 h 112.2064 v 139.1013 h -112.2064 z m 112.2064,0 h 112.2065 v 139.1013 h -112.2065 z m 112.2065,0 h 112.2064 v 139.1013 h -112.2064 z m 112.2064,0 h 112.2064 v 139.1013 h -112.2064 z m 112.2064,0 h 112.2065 v 139.1013 h -112.2065 z m 112.2065,0 h 112.2064 v 139.1013 h -112.2064 z m 112.2064,0 h 112.2064 v 139.1013 H 2176.1685 Z M 44.246349,1154.7429 H 156.45278 v 139.1012 H 44.246349 Z m 112.206431,0 h 112.20643 v 139.1012 H 156.45278 Z m 112.20643,0 h 112.20642 v 139.1012 H 268.65921 Z m 112.20642,0 h 112.20643 v 139.1012 H 380.86563 Z m 112.20643,0 h 112.20643 v 139.1012 H 493.07206 Z m 112.20643,0 h 112.20643 v 139.1012 H 605.27849 Z m 112.20643,0 h 112.20643 v 139.1012 H 717.48492 Z m 112.20643,0 h 112.20643 v 139.1012 H 829.69135 Z m 112.20643,0 h 112.20642 v 139.1012 H 941.89778 Z m 112.20642,0 h 112.2064 v 139.1012 h -112.2064 z m 112.2064,0 h 112.2065 v 139.1012 h -112.2065 z m 112.2065,0 h 112.2064 v 139.1012 h -112.2064 z m 112.2064,0 h 112.2064 v 139.1012 h -112.2064 z m 112.2064,0 h 112.2064 v 139.1012 h -112.2064 z m 112.2064,0 h 112.2065 v 139.1012 h -112.2065 z m 112.2065,0 h 112.2064 v 139.1012 h -112.2064 z m 112.2064,0 h 112.2064 v 139.1012 h -112.2064 z m 112.2064,0 h 112.2065 v 139.1012 h -112.2065 z m 112.2065,0 h 112.2064 v 139.1012 h -112.2064 z m 112.2064,0 h 112.2064 v 139.1012 H 2176.1685 Z M 44.246349,1293.8441 H 156.45278 v 139.1013 H 44.246349 Z m 112.206431,0 h 112.20643 v 139.1013 H 156.45278 Z m 112.20643,0 h 112.20642 v 139.1013 H 268.65921 Z m 112.20642,0 h 112.20643 v 139.1013 H 380.86563 Z m 112.20643,0 h 112.20643 v 139.1013 H 493.07206 Z m 112.20643,0 h 112.20643 v 139.1013 H 605.27849 Z m 112.20643,0 h 112.20643 v 139.1013 H 717.48492 Z m 112.20643,0 h 112.20643 v 139.1013 H 829.69135 Z m 112.20643,0 h 112.20642 v 139.1013 H 941.89778 Z m 112.20642,0 h 112.2064 v 139.1013 h -112.2064 z m 112.2064,0 h 112.2065 v 139.1013 h -112.2065 z m 112.2065,0 h 112.2064 v 139.1013 h -112.2064 z m 112.2064,0 h 112.2064 v 139.1013 h -112.2064 z m 112.2064,0 h 112.2064 v 139.1013 h -112.2064 z m 112.2064,0 h 112.2065 v 139.1013 h -112.2065 z m 112.2065,0 h 112.2064 v 139.1013 h -112.2064 z m 112.2064,0 h 112.2064 v 139.1013 h -112.2064 z m 112.2064,0 h 112.2065 v 139.1013 h -112.2065 z m 112.2065,0 h 112.2064 v 139.1013 h -112.2064 z m 112.2064,0 h 112.2064 v 139.1013 H 2176.1685 Z M 44.246349,1432.9454 H 156.45278 v 139.1012 H 44.246349 Z m 112.206431,0 h 112.20643 v 139.1012 H 156.45278 Z m 112.20643,0 h 112.20642 v 139.1012 H 268.65921 Z m 112.20642,0 h 112.20643 v 139.1012 H 380.86563 Z m 112.20643,0 h 112.20643 v 139.1012 H 493.07206 Z m 112.20643,0 h 112.20643 v 139.1012 H 605.27849 Z m 112.20643,0 h 112.20643 v 139.1012 H 717.48492 Z m 112.20643,0 h 112.20643 v 139.1012 H 829.69135 Z m 112.20643,0 h 112.20642 v 139.1012 H 941.89778 Z m 112.20642,0 h 112.2064 v 139.1012 h -112.2064 z m 112.2064,0 h 112.2065 v 139.1012 h -112.2065 z m 112.2065,0 h 112.2064 v 139.1012 h -112.2064 z m 112.2064,0 h 112.2064 v 139.1012 h -112.2064 z m 112.2064,0 h 112.2064 v 139.1012 h -112.2064 z m 112.2064,0 h 112.2065 v 139.1012 h -112.2065 z m 112.2065,0 h 112.2064 v 139.1012 h -112.2064 z m 112.2064,0 h 112.2064 v 139.1012 h -112.2064 z m 112.2064,0 h 112.2065 v 139.1012 h -112.2065 z m 112.2065,0 h 112.2064 v 139.1012 h -112.2064 z m 112.2064,0 h 112.2064 v 139.1012 H 2176.1685 Z M 44.246349,1572.0466 H 156.45278 v 139.1013 H 44.246349 Z m 112.206431,0 h 112.20643 v 139.1013 H 156.45278 Z m 112.20643,0 h 112.20642 v 139.1013 H 268.65921 Z m 112.20642,0 h 112.20643 v 139.1013 H 380.86563 Z m 112.20643,0 h 112.20643 v 139.1013 H 493.07206 Z m 112.20643,0 h 112.20643 v 139.1013 H 605.27849 Z m 112.20643,0 h 112.20643 v 139.1013 H 717.48492 Z m 112.20643,0 h 112.20643 v 139.1013 H 829.69135 Z m 112.20643,0 h 112.20642 v 139.1013 H 941.89778 Z m 112.20642,0 h 112.2064 v 139.1013 h -112.2064 z m 112.2064,0 h 112.2065 v 139.1013 h -112.2065 z m 112.2065,0 h 112.2064 v 139.1013 h -112.2064 z m 112.2064,0 h 112.2064 v 139.1013 h -112.2064 z m 112.2064,0 h 112.2064 v 139.1013 h -112.2064 z m 112.2064,0 h 112.2065 v 139.1013 h -112.2065 z m 112.2065,0 h 112.2064 v 139.1013 h -112.2064 z m 112.2064,0 h 112.2064 v 139.1013 h -112.2064 z m 112.2064,0 h 112.2065 v 139.1013 h -112.2065 z m 112.2065,0 h 112.2064 v 139.1013 h -112.2064 z m 112.2064,0 h 112.2064 v 139.1013 H 2176.1685 Z M 44.246349,1711.1479 H 156.45278 v 139.1013 H 44.246349 Z m 112.206431,0 h 112.20643 v 139.1013 H 156.45278 Z m 112.20643,0 h 112.20642 v 139.1013 H 268.65921 Z m 112.20642,0 h 112.20643 v 139.1013 H 380.86563 Z m 112.20643,0 h 112.20643 v 139.1013 H 493.07206 Z m 112.20643,0 h 112.20643 v 139.1013 H 605.27849 Z m 112.20643,0 h 112.20643 v 139.1013 H 717.48492 Z m 112.20643,0 h 112.20643 v 139.1013 H 829.69135 Z m 112.20643,0 h 112.20642 v 139.1013 H 941.89778 Z m 112.20642,0 h 112.2064 v 139.1013 h -112.2064 z m 112.2064,0 h 112.2065 v 139.1013 h -112.2065 z m 112.2065,0 h 112.2064 v 139.1013 h -112.2064 z m 112.2064,0 h 112.2064 v 139.1013 h -112.2064 z m 112.2064,0 h 112.2064 v 139.1013 h -112.2064 z m 112.2064,0 h 112.2065 v 139.1013 h -112.2065 z m 112.2065,0 h 112.2064 v 139.1013 h -112.2064 z m 112.2064,0 h 112.2064 v 139.1013 h -112.2064 z m 112.2064,0 h 112.2065 v 139.1013 h -112.2065 z m 112.2065,0 h 112.2064 v 139.1013 h -112.2064 z m 112.2064,0 h 112.2064 v 139.1013 H 2176.1685 Z M 44.246349,1850.2492 H 156.45278 v 139.1012 H 44.246349 Z m 112.206431,0 h 112.20643 v 139.1012 H 156.45278 Z m 112.20643,0 h 112.20642 v 139.1012 H 268.65921 Z m 112.20642,0 h 112.20643 v 139.1012 H 380.86563 Z m 112.20643,0 h 112.20643 v 139.1012 H 493.07206 Z m 112.20643,0 h 112.20643 v 139.1012 H 605.27849 Z m 112.20643,0 h 112.20643 v 139.1012 H 717.48492 Z m 112.20643,0 h 112.20643 v 139.1012 H 829.69135 Z m 112.20643,0 h 112.20642 v 139.1012 H 941.89778 Z m 112.20642,0 h 112.2064 v 139.1012 h -112.2064 z m 112.2064,0 h 112.2065 v 139.1012 h -112.2065 z m 112.2065,0 h 112.2064 v 139.1012 h -112.2064 z m 112.2064,0 h 112.2064 v 139.1012 h -112.2064 z m 112.2064,0 h 112.2064 v 139.1012 h -112.2064 z m 112.2064,0 h 112.2065 v 139.1012 h -112.2065 z m 112.2065,0 h 112.2064 v 139.1012 h -112.2064 z m 112.2064,0 h 112.2064 v 139.1012 h -112.2064 z m 112.2064,0 h 112.2065 v 139.1012 h -112.2065 z m 112.2065,0 h 112.2064 v 139.1012 h -112.2064 z m 112.2064,0 h 112.2064 v 139.1012 H 2176.1685 Z M 44.246349,1989.3504 H 156.45278 v 139.1013 H 44.246349 Z m 112.206431,0 h 112.20643 v 139.1013 H 156.45278 Z m 112.20643,0 h 112.20642 v 139.1013 H 268.65921 Z m 112.20642,0 h 112.20643 v 139.1013 H 380.86563 Z m 112.20643,0 h 112.20643 v 139.1013 H 493.07206 Z m 112.20643,0 h 112.20643 v 139.1013 H 605.27849 Z m 112.20643,0 h 112.20643 v 139.1013 H 717.48492 Z m 112.20643,0 h 112.20643 v 139.1013 H 829.69135 Z m 112.20643,0 h 112.20642 v 139.1013 H 941.89778 Z m 112.20642,0 h 112.2064 v 139.1013 h -112.2064 z m 112.2064,0 h 112.2065 v 139.1013 h -112.2065 z m 112.2065,0 h 112.2064 v 139.1013 h -112.2064 z m 112.2064,0 h 112.2064 v 139.1013 h -112.2064 z m 112.2064,0 h 112.2064 v 139.1013 h -112.2064 z m 112.2064,0 h 112.2065 v 139.1013 h -112.2065 z m 112.2065,0 h 112.2064 v 139.1013 h -112.2064 z m 112.2064,0 h 112.2064 v 139.1013 h -112.2064 z m 112.2064,0 h 112.2065 v 139.1013 h -112.2065 z m 112.2065,0 h 112.2064 v 139.1013 h -112.2064 z m 112.2064,0 h 112.2064 v 139.1013 H 2176.1685 Z M 44.246349,2128.4517 H 156.45278 v 139.1012 H 44.246349 Z m 112.206431,0 h 112.20643 v 139.1012 H 156.45278 Z m 112.20643,0 h 112.20642 v 139.1012 H 268.65921 Z m 112.20642,0 h 112.20643 v 139.1012 H 380.86563 Z m 112.20643,0 h 112.20643 v 139.1012 H 493.07206 Z m 112.20643,0 h 112.20643 v 139.1012 H 605.27849 Z m 112.20643,0 h 112.20643 v 139.1012 H 717.48492 Z m 112.20643,0 h 112.20643 v 139.1012 H 829.69135 Z m 112.20643,0 h 112.20642 v 139.1012 H 941.89778 Z m 112.20642,0 h 112.2064 v 139.1012 h -112.2064 z m 112.2064,0 h 112.2065 v 139.1012 h -112.2065 z m 112.2065,0 h 112.2064 v 139.1012 h -112.2064 z m 112.2064,0 h 112.2064 v 139.1012 h -112.2064 z m 112.2064,0 h 112.2064 v 139.1012 h -112.2064 z m 112.2064,0 h 112.2065 v 139.1012 h -112.2065 z m 112.2065,0 h 112.2064 v 139.1012 h -112.2064 z m 112.2064,0 h 112.2064 v 139.1012 h -112.2064 z m 112.2064,0 h 112.2065 v 139.1012 h -112.2065 z m 112.2065,0 h 112.2064 v 139.1012 h -112.2064 z m 112.2064,0 h 112.2064 v 139.1012 H 2176.1685 Z M 44.246349,2267.5529 H 156.45278 v 139.1013 H 44.246349 Z m 112.206431,0 h 112.20643 v 139.1013 H 156.45278 Z m 112.20643,0 h 112.20642 v 139.1013 H 268.65921 Z m 112.20642,0 h 112.20643 v 139.1013 H 380.86563 Z m 112.20643,0 h 112.20643 v 139.1013 H 493.07206 Z m 112.20643,0 h 112.20643 v 139.1013 H 605.27849 Z m 112.20643,0 h 112.20643 v 139.1013 H 717.48492 Z m 112.20643,0 h 112.20643 v 139.1013 H 829.69135 Z m 112.20643,0 h 112.20642 v 139.1013 H 941.89778 Z m 112.20642,0 h 112.2064 v 139.1013 h -112.2064 z m 112.2064,0 h 112.2065 v 139.1013 h -112.2065 z m 112.2065,0 h 112.2064 v 139.1013 h -112.2064 z m 112.2064,0 h 112.2064 v 139.1013 h -112.2064 z m 112.2064,0 h 112.2064 v 139.1013 h -112.2064 z m 112.2064,0 h 112.2065 v 139.1013 h -112.2065 z m 112.2065,0 h 112.2064 v 139.1013 h -112.2064 z m 112.2064,0 h 112.2064 v 139.1013 h -112.2064 z m 112.2064,0 h 112.2065 v 139.1013 h -112.2065 z m 112.2065,0 h 112.2064 v 139.1013 h -112.2064 z m 112.2064,0 h 112.2064 v 139.1013 H 2176.1685 Z M 44.246349,2406.6542 H 156.45278 v 139.1012 H 44.246349 Z m 112.206431,0 h 112.20643 v 139.1012 H 156.45278 Z m 112.20643,0 h 112.20642 v 139.1012 H 268.65921 Z m 112.20642,0 h 112.20643 v 139.1012 H 380.86563 Z m 112.20643,0 h 112.20643 v 139.1012 H 493.07206 Z m 112.20643,0 h 112.20643 v 139.1012 H 605.27849 Z m 112.20643,0 h 112.20643 v 139.1012 H 717.48492 Z m 112.20643,0 h 112.20643 v 139.1012 H 829.69135 Z m 112.20643,0 h 112.20642 v 139.1012 H 941.89778 Z m 112.20642,0 h 112.2064 v 139.1012 h -112.2064 z m 112.2064,0 h 112.2065 v 139.1012 h -112.2065 z m 112.2065,0 h 112.2064 v 139.1012 h -112.2064 z m 112.2064,0 h 112.2064 v 139.1012 h -112.2064 z m 112.2064,0 h 112.2064 v 139.1012 h -112.2064 z m 112.2064,0 h 112.2065 v 139.1012 h -112.2065 z m 112.2065,0 h 112.2064 v 139.1012 h -112.2064 z m 112.2064,0 h 112.2064 v 139.1012 h -112.2064 z m 112.2064,0 h 112.2065 v 139.1012 h -112.2065 z m 112.2065,0 h 112.2064 v 139.1012 h -112.2064 z m 112.2064,0 h 112.2064 v 139.1012 H 2176.1685 Z M 44.246349,2545.7554 H 156.45278 v 139.1013 H 44.246349 Z m 112.206431,0 h 112.20643 v 139.1013 H 156.45278 Z m 112.20643,0 h 112.20642 v 139.1013 H 268.65921 Z m 112.20642,0 h 112.20643 v 139.1013 H 380.86563 Z m 112.20643,0 h 112.20643 v 139.1013 H 493.07206 Z m 112.20643,0 h 112.20643 v 139.1013 H 605.27849 Z m 112.20643,0 h 112.20643 v 139.1013 H 717.48492 Z m 112.20643,0 h 112.20643 v 139.1013 H 829.69135 Z m 112.20643,0 h 112.20642 v 139.1013 H 941.89778 Z m 112.20642,0 h 112.2064 v 139.1013 h -112.2064 z m 112.2064,0 h 112.2065 v 139.1013 h -112.2065 z m 112.2065,0 h 112.2064 v 139.1013 h -112.2064 z m 112.2064,0 h 112.2064 v 139.1013 h -112.2064 z m 112.2064,0 h 112.2064 v 139.1013 h -112.2064 z m 112.2064,0 h 112.2065 v 139.1013 h -112.2065 z m 112.2065,0 h 112.2064 v 139.1013 h -112.2064 z m 112.2064,0 h 112.2064 v 139.1013 h -112.2064 z m 112.2064,0 h 112.2065 v 139.1013 h -112.2065 z m 112.2065,0 h 112.2064 v 139.1013 h -112.2064 z m 112.2064,0 h 112.2064 v 139.1013 H 2176.1685 Z M 44.246349,2684.8567 H 156.45278 V 2823.958 H 44.246349 Z m 112.206431,0 H 268.65921 V 2823.958 H 156.45278 Z m 112.20643,0 H 380.86563 V 2823.958 H 268.65921 Z m 112.20642,0 H 493.07206 V 2823.958 H 380.86563 Z m 112.20643,0 H 605.27849 V 2823.958 H 493.07206 Z m 112.20643,0 H 717.48492 V 2823.958 H 605.27849 Z m 112.20643,0 H 829.69135 V 2823.958 H 717.48492 Z m 112.20643,0 H 941.89778 V 2823.958 H 829.69135 Z m 112.20643,0 H 1054.1042 V 2823.958 H 941.89778 Z m 112.20642,0 h 112.2064 v 139.1013 h -112.2064 z m 112.2064,0 h 112.2065 v 139.1013 h -112.2065 z m 112.2065,0 h 112.2064 v 139.1013 h -112.2064 z m 112.2064,0 h 112.2064 v 139.1013 h -112.2064 z m 112.2064,0 h 112.2064 v 139.1013 h -112.2064 z m 112.2064,0 h 112.2065 v 139.1013 h -112.2065 z m 112.2065,0 h 112.2064 v 139.1013 h -112.2064 z m 112.2064,0 h 112.2064 v 139.1013 h -112.2064 z m 112.2064,0 h 112.2065 v 139.1013 h -112.2065 z m 112.2065,0 h 112.2064 v 139.1013 h -112.2064 z m 112.2064,0 h 112.2064 v 139.1013 h -112.2064 z"
       sodipodi:type="rect"
       transform="matrix(0.07998659,0,0,0.06452551,6.4191213,56.038468)" />
    <text
       xml:space="preserve"
       transform="matrix(0.40377319,0,0,0.40377319,-12.234751,-25.751049)"
       id="text6581"
       style="font-size:24.4637px;font-family:FT88;-inkscape-font-specification:FT88;letter-spacing:5.1898px;white-space:pre;shape-inside:url(#rect6583);fill:none;stroke:#000000;stroke-width:1.88976;stroke-dasharray:none;stroke-opacity:1"
       x="0"
       y="0"><tspan
         x="56.693359"
         y="198.60353"
         id="tspan7052"><tspan
           style="text-align:justify;fill:#000000;stroke:none"
           id="tspan7050">ABCDEFGHIJKLMNOPQRST</tspan></tspan></text>
    <text
       xml:space="preserve"
       transform="matrix(0.40377319,0,0,0.40377319,170.09324,-11.877278)"
       id="text6581-2"
       style="font-size:20.9689px;line-height:1.06;font-family:FT88;-inkscape-font-specification:FT88;letter-spacing:-3.26983px;white-space:pre;shape-inside:url(#rect6583-9);fill:none;stroke:#000000;stroke-width:1.88976;stroke-dasharray:none;stroke-opacity:1"
       x="0"
       y="0"><tspan
         x="56.693359"
         y="193.3788"
         id="tspan7056"><tspan
           style="text-align:justify;fill:#000000;stroke:none"
           id="tspan7054">01
</tspan></tspan><tspan
         x="56.693359"
         y="215.60583"
         id="tspan7060"><tspan
           style="text-align:justify;fill:#000000;stroke:none"
           id="tspan7058">02
</tspan></tspan><tspan
         x="56.693359"
         y="237.83287"
         id="tspan7064"><tspan
           style="text-align:justify;fill:#000000;stroke:none"
           id="tspan7062">03
</tspan></tspan><tspan
         x="56.693359"
         y="260.0599"
         id="tspan7068"><tspan
           style="text-align:justify;fill:#000000;stroke:none"
           id="tspan7066">04
</tspan></tspan><tspan
         x="56.693359"
         y="282.28694"
         id="tspan7072"><tspan
           style="text-align:justify;fill:#000000;stroke:none"
           id="tspan7070">05
</tspan></tspan><tspan
         x="56.693359"
         y="304.51396"
         id="tspan7076"><tspan
           style="text-align:justify;fill:#000000;stroke:none"
           id="tspan7074">06
</tspan></tspan><tspan
         x="56.693359"
         y="326.74098"
         id="tspan7080"><tspan
           style="text-align:justify;fill:#000000;stroke:none"
           id="tspan7078">07
</tspan></tspan><tspan
         x="56.693359"
         y="348.968"
         id="tspan7084"><tspan
           style="text-align:justify;fill:#000000;stroke:none"
           id="tspan7082">08
</tspan></tspan><tspan
         x="56.693359"
         y="371.19502"
         id="tspan7088"><tspan
           style="text-align:justify;fill:#000000;stroke:none"
           id="tspan7086">09
</tspan></tspan><tspan
         x="56.693359"
         y="393.42204"
         id="tspan7092"><tspan
           style="text-align:justify;fill:#000000;stroke:none"
           id="tspan7090">10
</tspan></tspan><tspan
         x="56.693359"
         y="415.64906"
         id="tspan7096"><tspan
           style="text-align:justify;fill:#000000;stroke:none"
           id="tspan7094">11
</tspan></tspan><tspan
         x="56.693359"
         y="437.87608"
         id="tspan7100"><tspan
           style="text-align:justify;fill:#000000;stroke:none"
           id="tspan7098">12
</tspan></tspan><tspan
         x="56.693359"
         y="460.1031"
         id="tspan7104"><tspan
           style="text-align:justify;fill:#000000;stroke:none"
           id="tspan7102">13
</tspan></tspan><tspan
         x="56.693359"
         y="482.33012"
         id="tspan7108"><tspan
           style="text-align:justify;fill:#000000;stroke:none"
           id="tspan7106">14
</tspan></tspan><tspan
         x="56.693359"
         y="504.55714"
         id="tspan7112"><tspan
           style="text-align:justify;fill:#000000;stroke:none"
           id="tspan7110">15
</tspan></tspan><tspan
         x="56.693359"
         y="526.78416"
         id="tspan7116"><tspan
           style="text-align:justify;fill:#000000;stroke:none"
           id="tspan7114">16
</tspan></tspan><tspan
         x="56.693359"
         y="549.01118"
         id="tspan7120"><tspan
           style="text-align:justify;fill:#000000;stroke:none"
           id="tspan7118">17
</tspan></tspan><tspan
         x="56.693359"
         y="571.23823"
         id="tspan7124"><tspan
           style="text-align:justify;fill:#000000;stroke:none"
           id="tspan7122">18
</tspan></tspan><tspan
         x="56.693359"
         y="593.46528"
         id="tspan7128"><tspan
           style="text-align:justify;fill:#000000;stroke:none"
           id="tspan7126">19
</tspan></tspan><tspan
         x="56.693359"
         y="615.69233"
         id="tspan7132"><tspan
           style="text-align:justify;fill:#000000;stroke:none"
           id="tspan7130">20</tspan></tspan></text>
  </g>
</svg>
