<svg id="Calque_1" data-name="Calque 1" xmlns="http://www.w3.org/2000/svg" viewBox="0 0 188.5 256.84"><defs><style>.cls-1{fill:#020202;}.cls-2{fill:none;stroke:#000;stroke-miterlimit:10;}.cls-3{fill:#1d1d1b;}</style></defs><title>avatar</title><polygon points="30.27 17.93 15.64 43.27 44.9 43.27 30.27 17.93"/><rect class="cls-1" x="3.83" y="89.89" width="51.39" height="3.68"/><rect class="cls-2" x="1.24" y="0.5" width="58.05" height="58.05"/><rect class="cls-2" x="0.64" y="67.25" width="58.05" height="58.05"/><path class="cls-3" d="M128.65,94.13l.67,1.45.66-1.45h.68l-1.35,2.76L128,94.13Z" transform="translate(-35.42 -43.94)"/><path class="cls-3" d="M130.83,95.4a1.28,1.28,0,0,1,.41-1,1.3,1.3,0,0,1,1-.4,1.38,1.38,0,0,1,1,.4,1.39,1.39,0,0,1,0,2,1.38,1.38,0,0,1-1,.39,1.3,1.3,0,0,1-1-.4A1.35,1.35,0,0,1,130.83,95.4Zm.62,0a.92.92,0,0,0,.2.62.75.75,0,0,0,.56.23.75.75,0,0,0,.57-.23.84.84,0,0,0,.21-.6.85.85,0,0,0-.21-.61.76.76,0,0,0-.57-.23.73.73,0,0,0-.55.23A.84.84,0,0,0,131.45,95.41Z" transform="translate(-35.42 -43.94)"/><path class="cls-3" d="M134.83,92.22v4.5h-.6v-4.5Z" transform="translate(-35.42 -43.94)"/><path class="cls-3" d="M137.94,95.56h-1.85a.74.74,0,0,0,.21.51.63.63,0,0,0,.47.19.62.62,0,0,0,.37-.11,1.57,1.57,0,0,0,.32-.39L138,96a2.3,2.3,0,0,1-.25.34,1.49,1.49,0,0,1-.28.23,1.15,1.15,0,0,1-.32.14,1.5,1.5,0,0,1-.37,0,1.24,1.24,0,0,1-.94-.37,1.42,1.42,0,0,1-.35-1,1.45,1.45,0,0,1,.34-1,1.29,1.29,0,0,1,1.82,0,1.42,1.42,0,0,1,.33,1Zm-.61-.49a.57.57,0,0,0-.6-.48.49.49,0,0,0-.21,0,.56.56,0,0,0-.17.09.67.67,0,0,0-.14.15,1.19,1.19,0,0,0-.08.2Z" transform="translate(-35.42 -43.94)"/><path class="cls-3" d="M138.6,94.13h.6v.23a1,1,0,0,1,.29-.24.74.74,0,0,1,.31-.07,1,1,0,0,1,.49.16l-.27.55a.56.56,0,0,0-.33-.13c-.33,0-.49.25-.49.74v1.35h-.6Z" transform="translate(-35.42 -43.94)"/><path class="cls-3" d="M57.59,158.81h.6v4.49h-.6V163a1.1,1.1,0,0,1-.8.34,1.16,1.16,0,0,1-.88-.38,1.48,1.48,0,0,1-.35-1,1.41,1.41,0,0,1,.35-1,1.11,1.11,0,0,1,.87-.39,1.09,1.09,0,0,1,.81.37ZM56.17,162a.9.9,0,0,0,.2.6.66.66,0,0,0,.52.24.71.71,0,0,0,.54-.23,1,1,0,0,0,0-1.2.71.71,0,0,0-1,0A.85.85,0,0,0,56.17,162Z" transform="translate(-35.42 -43.94)"/><path class="cls-3" d="M61.31,162.15H59.45a.79.79,0,0,0,.21.5.61.61,0,0,0,.47.19.62.62,0,0,0,.37-.11,1.56,1.56,0,0,0,.33-.39l.5.28a1.87,1.87,0,0,1-.25.34,1,1,0,0,1-.6.37,1.45,1.45,0,0,1-.37,0,1.2,1.2,0,0,1-.93-.37,1.36,1.36,0,0,1-.35-1,1.44,1.44,0,0,1,.34-1A1.3,1.3,0,0,1,61,161a1.44,1.44,0,0,1,.33,1Zm-.62-.49a.57.57,0,0,0-.6-.48.64.64,0,0,0-.2,0,.52.52,0,0,0-.18.1.47.47,0,0,0-.13.15.61.61,0,0,0-.09.2Zm.29-2.23-1,.88-.33-.2.73-1Z" transform="translate(-35.42 -43.94)"/><path class="cls-3" d="M62.63,161.27v2H62v-2h-.26v-.56H62v-1h.6v1h.46v.56Z" transform="translate(-35.42 -43.94)"/><path class="cls-3" d="M63.5,160.71h.6v.23a1.4,1.4,0,0,1,.29-.24.75.75,0,0,1,.31-.06,1,1,0,0,1,.49.15l-.27.55a.61.61,0,0,0-.33-.12c-.33,0-.49.24-.49.74v1.34h-.6Z" transform="translate(-35.42 -43.94)"/><path class="cls-3" d="M66.22,160.71v1.49c0,.43.17.64.5.64s.51-.21.51-.64v-1.49h.6v1.5a1.71,1.71,0,0,1-.08.54.87.87,0,0,1-.26.36,1.26,1.26,0,0,1-1.53,0,.9.9,0,0,1-.27-.36,1.5,1.5,0,0,1-.07-.54v-1.5Z" transform="translate(-35.42 -43.94)"/><path class="cls-3" d="M68.49,159.63a.37.37,0,0,1,.12-.27.39.39,0,0,1,.27-.11.41.41,0,0,1,.28.11.37.37,0,0,1,.11.28.35.35,0,0,1-.11.27.37.37,0,0,1-.27.12.41.41,0,0,1-.4-.4Zm.69,1.08v2.59h-.6v-2.59Z" transform="translate(-35.42 -43.94)"/><path class="cls-3" d="M69.94,160.71h.6v.23a1.72,1.72,0,0,1,.29-.24.75.75,0,0,1,.31-.06,1,1,0,0,1,.49.15l-.27.55a.56.56,0,0,0-.33-.12c-.33,0-.49.24-.49.74v1.34h-.6Z" transform="translate(-35.42 -43.94)"/><path class="cls-3" d="M74.3,162.15H72.44a.79.79,0,0,0,.21.5.61.61,0,0,0,.47.19.62.62,0,0,0,.37-.11,1.38,1.38,0,0,0,.33-.39l.5.28a2.5,2.5,0,0,1-.24.34,1.23,1.23,0,0,1-.28.24,1.2,1.2,0,0,1-.33.13,1.45,1.45,0,0,1-.37,0,1.2,1.2,0,0,1-.93-.37,1.41,1.41,0,0,1-.35-1,1.44,1.44,0,0,1,.34-1A1.3,1.3,0,0,1,74,161a1.44,1.44,0,0,1,.33,1Zm-.62-.49a.57.57,0,0,0-.6-.48.64.64,0,0,0-.2,0,.52.52,0,0,0-.18.1.64.64,0,0,0-.13.15.61.61,0,0,0-.09.2Z" transform="translate(-35.42 -43.94)"/><path class="cls-3" d="M64.94,230.78" transform="translate(-35.42 -43.94)"/><polygon points="110.07 17.93 96.68 41.12 123.46 41.12 110.07 17.93"/><polygon points="83.29 17.93 69.89 41.12 96.68 41.12 83.29 17.93"/><path class="cls-3" d="M60.05,94.57l-.49.26c-.08-.16-.18-.24-.29-.24a.18.18,0,0,0-.14.06.16.16,0,0,0-.06.13c0,.1.11.2.34.3a2.07,2.07,0,0,1,.65.38.63.63,0,0,1,.16.46.81.81,0,0,1-.28.63,1,1,0,0,1-1.57-.4l.51-.23a1.32,1.32,0,0,0,.16.23.39.39,0,0,0,.27.11c.2,0,.3-.1.3-.28s-.08-.21-.24-.3l-.18-.09L59,95.51a1.17,1.17,0,0,1-.37-.26.64.64,0,0,1-.13-.42.73.73,0,0,1,.23-.56.85.85,0,0,1,.57-.22A.78.78,0,0,1,60.05,94.57Z" transform="translate(-35.42 -43.94)"/><path class="cls-3" d="M62.67,94.13h.6v2.59h-.6v-.28a1.18,1.18,0,0,1-.8.35A1.15,1.15,0,0,1,61,96.4a1.44,1.44,0,0,1-.35-1,1.41,1.41,0,0,1,.35-1,1.15,1.15,0,0,1,.88-.39,1.11,1.11,0,0,1,.81.38Zm-1.42,1.28a.88.88,0,0,0,.2.61.63.63,0,0,0,.51.24A.71.71,0,0,0,62.5,96a.87.87,0,0,0,.2-.6.88.88,0,0,0-.2-.61.7.7,0,0,0-.53-.23.66.66,0,0,0-.52.24A.84.84,0,0,0,61.25,95.41Z" transform="translate(-35.42 -43.94)"/><path class="cls-3" d="M64.62,94.13v1.48c0,.43.17.65.51.65s.51-.22.51-.65V94.13h.59v1.49a1.73,1.73,0,0,1-.07.54.93.93,0,0,1-.26.37,1.27,1.27,0,0,1-1.54,0,.93.93,0,0,1-.26-.37,1.46,1.46,0,0,1-.08-.54V94.13Z" transform="translate(-35.42 -43.94)"/><path class="cls-3" d="M67.61,94.68v2H67v-2h-.26v-.55H67v-.95h.6v.95h.46v.55Z" transform="translate(-35.42 -43.94)"/><path class="cls-3" d="M70.88,95.56H69a.74.74,0,0,0,.21.51.65.65,0,0,0,.47.19.62.62,0,0,0,.37-.11,1.57,1.57,0,0,0,.32-.39l.51.28a2.3,2.3,0,0,1-.25.34,1.49,1.49,0,0,1-.28.23,1.15,1.15,0,0,1-.32.14,1.45,1.45,0,0,1-.37,0,1.24,1.24,0,0,1-.94-.37,1.42,1.42,0,0,1-.35-1,1.45,1.45,0,0,1,.34-1,1.19,1.19,0,0,1,.91-.38,1.16,1.16,0,0,1,.91.37,1.42,1.42,0,0,1,.33,1Zm-.61-.49a.57.57,0,0,0-.6-.48.49.49,0,0,0-.21,0,.56.56,0,0,0-.17.09.67.67,0,0,0-.14.15,1.19,1.19,0,0,0-.08.2Z" transform="translate(-35.42 -43.94)"/><path class="cls-3" d="M71.54,94.13h.6v.23a1,1,0,0,1,.29-.24.74.74,0,0,1,.31-.07,1,1,0,0,1,.49.16l-.27.55a.53.53,0,0,0-.33-.13c-.33,0-.49.25-.49.74v1.35h-.6Z" transform="translate(-35.42 -43.94)"/><rect class="cls-2" x="67.65" y="0.5" width="58.05" height="58.05"/><rect class="cls-2" x="67.65" y="67.25" width="58.05" height="58.05"/><path class="cls-3" d="M125.05,160.71h.59V161a1.77,1.77,0,0,1,.3-.25.81.81,0,0,1,.33-.06.8.8,0,0,1,.69.38.91.91,0,0,1,.76-.38c.59,0,.88.35.88,1.06v1.6H128v-1.44a1.15,1.15,0,0,0-.09-.53.35.35,0,0,0-.31-.15.4.4,0,0,0-.36.18,1.31,1.31,0,0,0-.11.6v1.34h-.6v-1.43c0-.46-.14-.69-.4-.69a.4.4,0,0,0-.37.19,1.11,1.11,0,0,0-.12.59v1.34h-.59Z" transform="translate(-35.42 -43.94)"/><path class="cls-3" d="M131.26,160.71h.6v2.59h-.6V163a1.13,1.13,0,0,1-.79.34,1.16,1.16,0,0,1-.89-.38,1.48,1.48,0,0,1-.35-1,1.41,1.41,0,0,1,.35-1,1.11,1.11,0,0,1,.87-.39,1.09,1.09,0,0,1,.81.37ZM129.84,162a.9.9,0,0,0,.2.6.66.66,0,0,0,.52.24.71.71,0,0,0,.54-.23,1,1,0,0,0,0-1.2.71.71,0,0,0-1,0A.85.85,0,0,0,129.84,162Z" transform="translate(-35.42 -43.94)"/><path class="cls-3" d="M132.62,160.71h.6V161a1,1,0,0,1,.71-.31.88.88,0,0,1,.7.28,1.15,1.15,0,0,1,.22.79v1.59h-.6v-1.45a1,1,0,0,0-.11-.53.42.42,0,0,0-.38-.14.47.47,0,0,0-.42.19,1.39,1.39,0,0,0-.12.68v1.25h-.6Z" transform="translate(-35.42 -43.94)"/><path class="cls-3" d="M138.11,163.24a3.11,3.11,0,0,1,0,.32,1.64,1.64,0,0,1,0,.25,1,1,0,0,1-.25.5,1.19,1.19,0,0,1-1,.4,1.25,1.25,0,0,1-.85-.28,1.07,1.07,0,0,1-.4-.79h.6a.61.61,0,0,0,.11.29.64.64,0,0,0,.54.25q.66,0,.66-.81V163a1.12,1.12,0,0,1-.82.36,1.1,1.1,0,0,1-.87-.38,1.45,1.45,0,0,1-.34-1,1.48,1.48,0,0,1,.32-1,1.1,1.1,0,0,1,.9-.42,1.06,1.06,0,0,1,.81.36v-.29h.6Zm-.58-1.23a.84.84,0,0,0-.2-.6.71.71,0,0,0-1.06,0,1,1,0,0,0,0,1.16.71.71,0,0,0,1.08,0A.89.89,0,0,0,137.53,162Z" transform="translate(-35.42 -43.94)"/><path class="cls-3" d="M141.22,162.15h-1.85a.74.74,0,0,0,.2.5.63.63,0,0,0,.47.19.6.6,0,0,0,.37-.11,1.38,1.38,0,0,0,.33-.39l.51.28a1.87,1.87,0,0,1-.25.34,1.23,1.23,0,0,1-.28.24,1.27,1.27,0,0,1-.32.13,1.53,1.53,0,0,1-.38,0,1.23,1.23,0,0,1-.93-.37,1.41,1.41,0,0,1-.35-1,1.49,1.49,0,0,1,.34-1,1.17,1.17,0,0,1,.91-.37,1.2,1.2,0,0,1,.91.36,1.44,1.44,0,0,1,.33,1Zm-.61-.49a.58.58,0,0,0-.61-.48.64.64,0,0,0-.2,0,.59.59,0,0,0-.17.1.5.5,0,0,0-.14.15.6.6,0,0,0-.08.2Z" transform="translate(-35.42 -43.94)"/><path class="cls-3" d="M141.88,160.71h.59v.23a1.42,1.42,0,0,1,.3-.24.71.71,0,0,1,.31-.06,1,1,0,0,1,.49.15l-.27.55a.61.61,0,0,0-.34-.12c-.32,0-.49.24-.49.74v1.34h-.59Z" transform="translate(-35.42 -43.94)"/><path class="cls-3" d="M133.22,135.66,144,143.29a13.17,13.17,0,1,1,.19-15Z" transform="translate(-35.42 -43.94)"/><rect class="cls-2" x="0.5" y="132.51" width="58.05" height="58.05"/><path class="cls-3" d="M52.8,226.4l-.49.27c-.08-.16-.18-.24-.29-.24a.22.22,0,0,0-.14,0,.18.18,0,0,0-.06.14c0,.1.11.2.34.3a2,2,0,0,1,.64.37.66.66,0,0,1,.17.47.81.81,0,0,1-.28.63.93.93,0,0,1-.65.24,1,1,0,0,1-.92-.64l.51-.24a1.16,1.16,0,0,0,.16.24.37.37,0,0,0,.26.1c.21,0,.31-.09.31-.27s-.08-.21-.24-.3l-.18-.09-.18-.09a1.18,1.18,0,0,1-.37-.25.64.64,0,0,1-.13-.42.72.72,0,0,1,.23-.56.8.8,0,0,1,.57-.22A.78.78,0,0,1,52.8,226.4Z" transform="translate(-35.42 -43.94)"/><path class="cls-3" d="M55.86,227.4H54a.74.74,0,0,0,.21.51.64.64,0,0,0,.47.18.62.62,0,0,0,.37-.1,1.89,1.89,0,0,0,.32-.4l.51.28a2,2,0,0,1-.25.35,1.49,1.49,0,0,1-.28.23.9.9,0,0,1-.32.13,1.5,1.5,0,0,1-.37,0,1.24,1.24,0,0,1-.94-.38,1.41,1.41,0,0,1-.35-1,1.45,1.45,0,0,1,.34-1,1.3,1.3,0,0,1,1.82,0,1.46,1.46,0,0,1,.33,1Zm-.61-.49a.57.57,0,0,0-.6-.48.71.71,0,0,0-.21,0,1,1,0,0,0-.17.1.67.67,0,0,0-.14.15.93.93,0,0,0-.08.2Z" transform="translate(-35.42 -43.94)"/><path class="cls-3" d="M58.8,230h-.6v-4h.6v.28a1.14,1.14,0,0,1,1.68,0,1.44,1.44,0,0,1,.35,1,1.41,1.41,0,0,1-.35,1,1.11,1.11,0,0,1-.87.39,1.13,1.13,0,0,1-.81-.37Zm1.42-2.69a.89.89,0,0,0-.2-.6.66.66,0,0,0-.52-.24.67.67,0,0,0-.53.23.84.84,0,0,0-.21.6.88.88,0,0,0,.21.6.67.67,0,0,0,.53.23.65.65,0,0,0,.51-.23A.85.85,0,0,0,60.22,227.27Z" transform="translate(-35.42 -43.94)"/><path class="cls-3" d="M61.46,226h.6v.23a1.25,1.25,0,0,1,.29-.23.62.62,0,0,1,.31-.07,1,1,0,0,1,.5.15l-.28.55a.56.56,0,0,0-.33-.12c-.32,0-.49.25-.49.74v1.34h-.6Z" transform="translate(-35.42 -43.94)"/><path class="cls-3" d="M63.33,227.24a1.29,1.29,0,0,1,.4-1,1.37,1.37,0,0,1,1-.39,1.32,1.32,0,0,1,1,.4,1.28,1.28,0,0,1,.4,1,1.32,1.32,0,0,1-.4,1,1.37,1.37,0,0,1-1,.39,1.36,1.36,0,0,1-1-.4A1.34,1.34,0,0,1,63.33,227.24Zm.61,0a.85.85,0,0,0,.21.61.7.7,0,0,0,.56.23.73.73,0,0,0,.56-.22.87.87,0,0,0,.21-.61.84.84,0,0,0-.21-.6.74.74,0,0,0-.56-.23.75.75,0,0,0-.56.23A.84.84,0,0,0,63.94,227.25Z" transform="translate(-35.42 -43.94)"/><path class="cls-3" d="M67.37,226.52v2h-.59v-2h-.26V226h.26v-1h.59v1h.47v.56Z" transform="translate(-35.42 -43.94)"/><path class="cls-3" d="M70.65,227.4H68.8a.78.78,0,0,0,.2.51.66.66,0,0,0,.47.18.6.6,0,0,0,.37-.1,1.62,1.62,0,0,0,.33-.4l.51.28a2,2,0,0,1-.25.35,1.49,1.49,0,0,1-.28.23,1,1,0,0,1-.32.13,1.52,1.52,0,0,1-.38,0,1.24,1.24,0,0,1-.93-.38,1.41,1.41,0,0,1-.35-1,1.45,1.45,0,0,1,.34-1,1.18,1.18,0,0,1,.91-.38,1.2,1.2,0,0,1,.91.36,1.46,1.46,0,0,1,.33,1Zm-.61-.49a.57.57,0,0,0-.6-.48.66.66,0,0,0-.21,0,1,1,0,0,0-.17.1.5.5,0,0,0-.14.15.6.6,0,0,0-.08.2Zm.28-2.22-1,.87-.32-.2.73-1Z" transform="translate(-35.42 -43.94)"/><path class="cls-3" d="M73.81,228.49a3.11,3.11,0,0,1,0,.32c0,.1,0,.18,0,.25a1.17,1.17,0,0,1-1.22.91,1.32,1.32,0,0,1-.85-.28,1.13,1.13,0,0,1-.4-.8h.6a.7.7,0,0,0,.11.3.66.66,0,0,0,.55.24c.43,0,.65-.27.65-.81v-.36a1.13,1.13,0,0,1-1.69,0,1.45,1.45,0,0,1-.34-1,1.5,1.5,0,0,1,.32-1,1.11,1.11,0,0,1,.9-.42,1,1,0,0,1,.81.36V226h.6Zm-.57-1.23a.89.89,0,0,0-.2-.6.67.67,0,0,0-.53-.23.65.65,0,0,0-.54.25,1,1,0,0,0-.17.58,1,1,0,0,0,.17.58.71.71,0,0,0,1.08,0A.85.85,0,0,0,73.24,227.26Z" transform="translate(-35.42 -43.94)"/><path class="cls-3" d="M76.93,227.4H75.07a.79.79,0,0,0,.21.51.64.64,0,0,0,.47.18.62.62,0,0,0,.37-.1,1.89,1.89,0,0,0,.32-.4l.51.28a2,2,0,0,1-.25.35,1.49,1.49,0,0,1-.28.23.9.9,0,0,1-.32.13,1.44,1.44,0,0,1-.37,0,1.21,1.21,0,0,1-.93-.38,1.37,1.37,0,0,1-.36-1,1.45,1.45,0,0,1,.34-1,1.19,1.19,0,0,1,.91-.38,1.17,1.17,0,0,1,.91.36,1.46,1.46,0,0,1,.33,1Zm-.62-.49a.57.57,0,0,0-.6-.48.71.71,0,0,0-.21,0,1,1,0,0,0-.17.1.67.67,0,0,0-.14.15.93.93,0,0,0-.08.2Z" transform="translate(-35.42 -43.94)"/><path class="cls-3" d="M77.58,226h.6v.23a1.07,1.07,0,0,1,.29-.23.62.62,0,0,1,.31-.07,1,1,0,0,1,.49.15l-.27.55a.58.58,0,0,0-.33-.12c-.33,0-.49.25-.49.74v1.34h-.6Z" transform="translate(-35.42 -43.94)"/><path class="cls-1" d="M56.05,184.2a18.05,18.05,0,0,1,0,36.1Z" transform="translate(-35.42 -43.94)"/><rect class="cls-2" x="66.74" y="132.51" width="58.05" height="58.05"/><path class="cls-3" d="M118.39,226.4l-.5.27c-.08-.16-.17-.24-.29-.24a.24.24,0,0,0-.14,0,.18.18,0,0,0-.06.14c0,.1.12.2.35.3a2,2,0,0,1,.64.37.65.65,0,0,1,.16.47.83.83,0,0,1-.27.63,1,1,0,0,1-1.57-.4l.51-.24a.85.85,0,0,0,.16.24.35.35,0,0,0,.26.1q.3,0,.3-.27c0-.11-.07-.21-.23-.3l-.18-.09-.18-.09a1.07,1.07,0,0,1-.37-.25.64.64,0,0,1-.14-.42.75.75,0,0,1,.23-.56.81.81,0,0,1,.58-.22A.78.78,0,0,1,118.39,226.4Z" transform="translate(-35.42 -43.94)"/><path class="cls-3" d="M121.45,227.4h-1.86a.85.85,0,0,0,.21.51.64.64,0,0,0,.47.18.62.62,0,0,0,.37-.1,1.62,1.62,0,0,0,.33-.4l.5.28a2,2,0,0,1-.24.35,1.49,1.49,0,0,1-.28.23,1,1,0,0,1-.32.13,1.52,1.52,0,0,1-.38,0,1.21,1.21,0,0,1-.93-.38,1.59,1.59,0,0,1,0-2,1.18,1.18,0,0,1,.91-.38,1.16,1.16,0,0,1,.9.36,1.46,1.46,0,0,1,.33,1Zm-.61-.49a.58.58,0,0,0-.61-.48.64.64,0,0,0-.2,0l-.18.1a.64.64,0,0,0-.13.15.61.61,0,0,0-.09.2Z" transform="translate(-35.42 -43.94)"/><path class="cls-3" d="M124.4,226.52v2h-.6v-2h-.25V226h.25v-1h.6v1h.47v.56Z" transform="translate(-35.42 -43.94)"/><path class="cls-3" d="M127.68,227.4h-1.86a.85.85,0,0,0,.21.51.64.64,0,0,0,.47.18.62.62,0,0,0,.37-.1,1.62,1.62,0,0,0,.33-.4l.5.28a2,2,0,0,1-.24.35,1.49,1.49,0,0,1-.28.23,1,1,0,0,1-.32.13,1.52,1.52,0,0,1-.38,0,1.21,1.21,0,0,1-.93-.38,1.59,1.59,0,0,1,0-2,1.18,1.18,0,0,1,.91-.38,1.16,1.16,0,0,1,.9.36,1.46,1.46,0,0,1,.33,1Zm-.61-.49a.58.58,0,0,0-.61-.48.64.64,0,0,0-.2,0l-.18.1a.64.64,0,0,0-.13.15.61.61,0,0,0-.09.2Zm.28-2.22-1,.87-.33-.2.73-1Z" transform="translate(-35.42 -43.94)"/><path class="cls-3" d="M128.93,224.06v4.49h-.6v-4.49Z" transform="translate(-35.42 -43.94)"/><path class="cls-3" d="M132.05,227.4h-1.86a.85.85,0,0,0,.21.51.64.64,0,0,0,.47.18.62.62,0,0,0,.37-.1,1.62,1.62,0,0,0,.33-.4l.5.28a2.65,2.65,0,0,1-.24.35,1.49,1.49,0,0,1-.28.23,1,1,0,0,1-.33.13,1.44,1.44,0,0,1-.37,0,1.21,1.21,0,0,1-.93-.38,1.36,1.36,0,0,1-.35-1,1.4,1.4,0,0,1,.34-1,1.18,1.18,0,0,1,.91-.38,1.16,1.16,0,0,1,.9.36,1.46,1.46,0,0,1,.33,1Zm-.62-.49a.57.57,0,0,0-.6-.48.64.64,0,0,0-.2,0,.77.77,0,0,0-.18.1.47.47,0,0,0-.13.15.61.61,0,0,0-.09.2Zm.29-2.22-1,.87-.33-.2.73-1Z" transform="translate(-35.42 -43.94)"/><path class="cls-3" d="M133.3,230h-.6v-4h.6v.28a1.14,1.14,0,0,1,1.68,0,1.56,1.56,0,0,1,0,2,1.12,1.12,0,0,1-.88.39,1.13,1.13,0,0,1-.81-.37Zm1.42-2.69a.84.84,0,0,0-.2-.6.65.65,0,0,0-.51-.24.71.71,0,0,0-.54.23.84.84,0,0,0-.2.6.87.87,0,0,0,.2.6.71.71,0,0,0,1.05,0A.9.9,0,0,0,134.72,227.27Z" transform="translate(-35.42 -43.94)"/><path class="cls-3" d="M135.85,227.24a1.29,1.29,0,0,1,.4-1,1.41,1.41,0,0,1,2,0,1.32,1.32,0,0,1,.4,1,1.36,1.36,0,0,1-.4,1,1.38,1.38,0,0,1-1,.39,1.35,1.35,0,0,1-1.36-1.39Zm.61,0a.9.9,0,0,0,.2.61.82.82,0,0,0,1.13,0,.87.87,0,0,0,.21-.61.84.84,0,0,0-.21-.6.75.75,0,0,0-.56-.23.74.74,0,0,0-.56.23A.84.84,0,0,0,136.46,227.25Z" transform="translate(-35.42 -43.94)"/><path class="cls-3" d="M139.24,226h.6v.23a1.25,1.25,0,0,1,.29-.23.62.62,0,0,1,.31-.07,1,1,0,0,1,.49.15l-.27.55a.56.56,0,0,0-.33-.12c-.33,0-.49.25-.49.74v1.34h-.6Z" transform="translate(-35.42 -43.94)"/><path class="cls-3" d="M142.09,226.52v2h-.6v-2h-.25V226h.25v-1h.6v1h.47v.56Z" transform="translate(-35.42 -43.94)"/><path class="cls-3" d="M145.37,227.4h-1.86a.85.85,0,0,0,.21.51.64.64,0,0,0,.47.18.62.62,0,0,0,.37-.1,1.62,1.62,0,0,0,.33-.4l.5.28a2,2,0,0,1-.24.35,1.49,1.49,0,0,1-.28.23,1,1,0,0,1-.32.13,1.58,1.58,0,0,1-.38,0,1.21,1.21,0,0,1-.93-.38,1.59,1.59,0,0,1,0-2,1.18,1.18,0,0,1,.91-.38,1.16,1.16,0,0,1,.9.36,1.46,1.46,0,0,1,.33,1Zm-.61-.49a.58.58,0,0,0-.61-.48.64.64,0,0,0-.2,0,.77.77,0,0,0-.18.1.64.64,0,0,0-.13.15.61.61,0,0,0-.09.2Z" transform="translate(-35.42 -43.94)"/><path class="cls-3" d="M146,226h.6v.23a1.25,1.25,0,0,1,.29-.23.62.62,0,0,1,.31-.07,1,1,0,0,1,.5.15l-.28.55a.56.56,0,0,0-.33-.12c-.33,0-.49.25-.49.74v1.34H146Z" transform="translate(-35.42 -43.94)"/><path class="cls-3" d="M64.94,296.56" transform="translate(-35.42 -43.94)"/><rect class="cls-2" x="0.5" y="198.29" width="58.05" height="58.05"/><path class="cls-3" d="M56.29,295.75h-.6v-4h.6V292a1.11,1.11,0,0,1,.81-.35,1.13,1.13,0,0,1,.88.39,1.44,1.44,0,0,1,.35,1,1.43,1.43,0,0,1-.35,1,1.14,1.14,0,0,1-.87.38,1.12,1.12,0,0,1-.82-.36Zm1.42-2.69a.88.88,0,0,0-.2-.61.63.63,0,0,0-.51-.23.7.7,0,0,0-.54.22,1,1,0,0,0,0,1.21.69.69,0,0,0,.53.23.66.66,0,0,0,.52-.24A.82.82,0,0,0,57.71,293.06Z" transform="translate(-35.42 -43.94)"/><path class="cls-3" d="M58.84,293a1.27,1.27,0,0,1,.4-.95,1.35,1.35,0,0,1,1-.39,1.37,1.37,0,0,1,1,.39,1.32,1.32,0,0,1,.4,1,1.3,1.3,0,0,1-.4,1,1.37,1.37,0,0,1-1,.39,1.3,1.3,0,0,1-1-.4A1.34,1.34,0,0,1,58.84,293Zm.61,0a.88.88,0,0,0,.21.62.72.72,0,0,0,.56.23.74.74,0,0,0,.56-.23.84.84,0,0,0,.21-.6.89.89,0,0,0-.21-.61.82.82,0,0,0-1.12,0A.85.85,0,0,0,59.45,293Z" transform="translate(-35.42 -43.94)"/><path class="cls-3" d="M62.83,291.75v1.48c0,.43.17.65.51.65s.51-.22.51-.65v-1.48h.59v1.5a1.66,1.66,0,0,1-.07.53.93.93,0,0,1-.26.37,1.27,1.27,0,0,1-1.54,0,.93.93,0,0,1-.26-.37,1.4,1.4,0,0,1-.08-.53v-1.5Z" transform="translate(-35.42 -43.94)"/><path class="cls-3" d="M66.7,292.19l-.49.26c-.08-.16-.17-.24-.29-.24a.2.2,0,0,0-.14.06.17.17,0,0,0-.06.14c0,.1.12.2.35.29a2.12,2.12,0,0,1,.64.38.65.65,0,0,1,.16.47.81.81,0,0,1-.27.62,1,1,0,0,1-1.58-.39l.51-.24a2,2,0,0,0,.17.24.4.4,0,0,0,.26.1c.2,0,.3-.09.3-.28s-.08-.2-.23-.3l-.18-.08-.19-.09a1.11,1.11,0,0,1-.36-.26.57.57,0,0,1-.14-.41.74.74,0,0,1,.23-.56.81.81,0,0,1,.58-.22A.77.77,0,0,1,66.7,292.19Z" transform="translate(-35.42 -43.94)"/><path class="cls-3" d="M68.91,292.19l-.49.26c-.08-.16-.18-.24-.29-.24a.18.18,0,0,0-.14.06.17.17,0,0,0-.06.14c0,.1.12.2.35.29a2.12,2.12,0,0,1,.64.38.65.65,0,0,1,.16.47.79.79,0,0,1-.28.62.91.91,0,0,1-.64.24.94.94,0,0,1-.93-.63l.51-.24a1.27,1.27,0,0,0,.17.24.4.4,0,0,0,.26.1c.2,0,.3-.09.3-.28s-.08-.2-.23-.3l-.18-.08-.19-.09a1.31,1.31,0,0,1-.37-.26.61.61,0,0,1-.13-.41.74.74,0,0,1,.23-.56.8.8,0,0,1,.57-.22A.78.78,0,0,1,68.91,292.19Z" transform="translate(-35.42 -43.94)"/><path class="cls-3" d="M72,293.18H70.12a.8.8,0,0,0,.21.51.61.61,0,0,0,.47.19.62.62,0,0,0,.37-.11,1.81,1.81,0,0,0,.33-.39l.5.28a1.87,1.87,0,0,1-.25.34,1.27,1.27,0,0,1-.28.24,1,1,0,0,1-.32.13,1.45,1.45,0,0,1-.37,0,1.2,1.2,0,0,1-.93-.37,1.36,1.36,0,0,1-.35-1,1.43,1.43,0,0,1,.34-1,1.3,1.3,0,0,1,1.81,0,1.44,1.44,0,0,1,.33,1Zm-.62-.49a.57.57,0,0,0-.6-.47l-.21,0a.56.56,0,0,0-.17.09.65.65,0,0,0-.13.16.56.56,0,0,0-.09.19Z" transform="translate(-35.42 -43.94)"/><path class="cls-3" d="M72.63,291.75h.6V292a1.34,1.34,0,0,1,.29-.24.75.75,0,0,1,.31-.06,1,1,0,0,1,.49.15l-.27.55a.56.56,0,0,0-.33-.12c-.33,0-.49.24-.49.74v1.34h-.6Z" transform="translate(-35.42 -43.94)"/><rect class="cls-2" x="66.74" y="198.29" width="58.05" height="58.05"/><path class="cls-3" d="M121.9,293.18h-1.85a.71.71,0,0,0,.21.51.61.61,0,0,0,.47.19.62.62,0,0,0,.37-.11,1.57,1.57,0,0,0,.32-.39l.51.28a1.87,1.87,0,0,1-.25.34,1.55,1.55,0,0,1-.28.24,1.13,1.13,0,0,1-.32.13,1.5,1.5,0,0,1-.37,0,1.24,1.24,0,0,1-.94-.37,1.41,1.41,0,0,1-.35-1,1.48,1.48,0,0,1,.34-1,1.32,1.32,0,0,1,1.82,0,1.44,1.44,0,0,1,.33,1Zm-.61-.49a.57.57,0,0,0-.6-.47.71.71,0,0,0-.21,0,.56.56,0,0,0-.17.09l-.14.15a1.19,1.19,0,0,0-.08.2Z" transform="translate(-35.42 -43.94)"/><path class="cls-3" d="M124.06,292.19l-.49.26c-.08-.16-.18-.24-.29-.24a.18.18,0,0,0-.14.06.17.17,0,0,0-.06.14c0,.1.11.19.35.29a2.12,2.12,0,0,1,.64.38.65.65,0,0,1,.16.47.79.79,0,0,1-.28.62.91.91,0,0,1-.64.24.94.94,0,0,1-.93-.63l.51-.24a1.27,1.27,0,0,0,.17.24.4.4,0,0,0,.26.1c.2,0,.3-.09.3-.28s-.08-.2-.23-.3l-.19-.08-.18-.09a1.31,1.31,0,0,1-.37-.26.62.62,0,0,1-.13-.42.73.73,0,0,1,.23-.55.8.8,0,0,1,.57-.22A.78.78,0,0,1,124.06,292.19Z" transform="translate(-35.42 -43.94)"/><path class="cls-3" d="M126.78,291.86v.79a1.55,1.55,0,0,0-.36-.34.76.76,0,0,0-.38-.09.73.73,0,0,0-.56.23.93.93,0,0,0,0,1.19.73.73,0,0,0,.56.24.7.7,0,0,0,.38-.1,1.42,1.42,0,0,0,.37-.35v.79a1.5,1.5,0,0,1-.73.19,1.38,1.38,0,0,1-1-.39,1.28,1.28,0,0,1-.4-1,1.31,1.31,0,0,1,.41-1,1.38,1.38,0,0,1,1-.39A1.48,1.48,0,0,1,126.78,291.86Z" transform="translate(-35.42 -43.94)"/><path class="cls-3" d="M129.27,291.75h.6v2.59h-.6v-.27a1.13,1.13,0,0,1-.79.34,1.14,1.14,0,0,1-.89-.39,1.44,1.44,0,0,1-.35-1,1.43,1.43,0,0,1,.35-1,1.14,1.14,0,0,1,.87-.38,1.09,1.09,0,0,1,.81.37ZM127.85,293a.93.93,0,0,0,.2.61.66.66,0,0,0,.52.24.67.67,0,0,0,.53-.23.88.88,0,0,0,.21-.6.84.84,0,0,0-.21-.6.7.7,0,0,0-1,0A.84.84,0,0,0,127.85,293Z" transform="translate(-35.42 -43.94)"/><path class="cls-3" d="M131.23,289.85v4.49h-.6v-4.49Z" transform="translate(-35.42 -43.94)"/><path class="cls-3" d="M133.89,291.75h.6v2.59h-.6v-.27a1.13,1.13,0,0,1-.79.34,1.14,1.14,0,0,1-.89-.39,1.44,1.44,0,0,1-.35-1,1.43,1.43,0,0,1,.35-1,1.14,1.14,0,0,1,.87-.38,1.09,1.09,0,0,1,.81.37ZM132.47,293a.93.93,0,0,0,.2.61.66.66,0,0,0,.52.24.71.71,0,0,0,.54-.23.92.92,0,0,0,.2-.6.89.89,0,0,0-.2-.6.68.68,0,0,0-.54-.23.64.64,0,0,0-.51.23A.84.84,0,0,0,132.47,293Z" transform="translate(-35.42 -43.94)"/><path class="cls-3" d="M137.16,289.85h.6v4.49h-.6v-.27a1.15,1.15,0,0,1-1.68-.05,1.4,1.4,0,0,1-.35-1,1.35,1.35,0,0,1,.35-1,1.12,1.12,0,0,1,1.68,0ZM135.74,293a.88.88,0,0,0,.2.61.64.64,0,0,0,.51.24.69.69,0,0,0,.54-.23.88.88,0,0,0,.21-.6.84.84,0,0,0-.21-.6.71.71,0,0,0-1.05,0A.89.89,0,0,0,135.74,293Z" transform="translate(-35.42 -43.94)"/><path class="cls-3" d="M140.87,293.18H139a.74.74,0,0,0,.2.51.63.63,0,0,0,.47.19.6.6,0,0,0,.37-.11,1.38,1.38,0,0,0,.33-.39l.51.28a1.87,1.87,0,0,1-.25.34,1.55,1.55,0,0,1-.28.24,1.27,1.27,0,0,1-.32.13,1.53,1.53,0,0,1-.38,0,1.23,1.23,0,0,1-.93-.37,1.41,1.41,0,0,1-.35-1,1.48,1.48,0,0,1,.34-1,1.17,1.17,0,0,1,.91-.37,1.2,1.2,0,0,1,.91.36,1.44,1.44,0,0,1,.33,1Zm-.61-.49a.58.58,0,0,0-.61-.47.64.64,0,0,0-.2,0,.56.56,0,0,0-.17.09,1,1,0,0,0-.14.15.7.7,0,0,0-.08.2Z" transform="translate(-35.42 -43.94)"/><path class="cls-3" d="M141.53,291.75h.59V292a1,1,0,0,1,.3-.24.71.71,0,0,1,.31-.06,1,1,0,0,1,.49.15l-.27.55a.61.61,0,0,0-.34-.12c-.32,0-.49.24-.49.73v1.35h-.59Z" transform="translate(-35.42 -43.94)"/><rect class="cls-3" x="72.53" y="150.43" width="19.21" height="19.21"/><rect class="cls-3" x="99.78" y="150.43" width="19.21" height="19.21"/><rect class="cls-1" x="82.14" y="159.11" width="25.69" height="1.84"/><rect class="cls-1" x="15.64" y="222.09" width="25.88" height="4.17"/><rect class="cls-1" x="38.13" y="211.23" width="6.77" height="25.88"/><rect class="cls-2" x="129.96" y="132.51" width="58.05" height="58.05"/><path class="cls-3" d="M187.41,230h-.6v-4h.6v.28a1.15,1.15,0,0,1,1.69,0,1.44,1.44,0,0,1,.35,1,1.41,1.41,0,0,1-.35,1,1.11,1.11,0,0,1-.87.39,1.14,1.14,0,0,1-.82-.37Zm1.42-2.69a.84.84,0,0,0-.2-.6.64.64,0,0,0-.51-.24.71.71,0,0,0-.54.23.89.89,0,0,0-.2.6.92.92,0,0,0,.2.6.71.71,0,0,0,1,0A.85.85,0,0,0,188.83,227.27Z" transform="translate(-35.42 -43.94)"/><path class="cls-3" d="M190.68,224.06v4.49h-.6v-4.49Z" transform="translate(-35.42 -43.94)"/><path class="cls-3" d="M193.34,226h.6v2.59h-.6v-.27a1.14,1.14,0,0,1-.79.35,1.15,1.15,0,0,1-.89-.39,1.48,1.48,0,0,1-.35-1,1.41,1.41,0,0,1,.35-1,1.11,1.11,0,0,1,.87-.39,1.09,1.09,0,0,1,.81.37Zm-1.42,1.29a.93.93,0,0,0,.2.61.73.73,0,0,0,1.06,0,.89.89,0,0,0,.2-.6.92.92,0,0,0-.2-.6.71.71,0,0,0-.54-.23.68.68,0,0,0-.51.23A.87.87,0,0,0,191.92,227.25Z" transform="translate(-35.42 -43.94)"/><path class="cls-3" d="M194.7,226h.6v.24a1,1,0,0,1,.71-.31.88.88,0,0,1,.7.28,1.17,1.17,0,0,1,.22.79v1.59h-.6v-1.44a.93.93,0,0,0-.11-.53.42.42,0,0,0-.37-.15.48.48,0,0,0-.43.19,1.39,1.39,0,0,0-.12.68v1.25h-.6Z" transform="translate(-35.42 -43.94)"/><path class="cls-3" d="M200,227.4h-1.85a.74.74,0,0,0,.21.51.64.64,0,0,0,.47.18.62.62,0,0,0,.37-.1,1.89,1.89,0,0,0,.32-.4l.51.28a2,2,0,0,1-.25.35,1.49,1.49,0,0,1-.28.23.9.9,0,0,1-.32.13,1.5,1.5,0,0,1-.37,0,1.24,1.24,0,0,1-.94-.38,1.41,1.41,0,0,1-.35-1,1.45,1.45,0,0,1,.34-1,1.3,1.3,0,0,1,1.82,0,1.46,1.46,0,0,1,.33,1Zm-.61-.49a.57.57,0,0,0-.6-.48.71.71,0,0,0-.21,0,1,1,0,0,0-.17.1.67.67,0,0,0-.14.15.93.93,0,0,0-.08.2Z" transform="translate(-35.42 -43.94)"/><path class="cls-3" d="M200.7,226h.6v.23a1.07,1.07,0,0,1,.29-.23.62.62,0,0,1,.31-.07,1,1,0,0,1,.49.15l-.27.55a.61.61,0,0,0-.33-.12c-.33,0-.49.25-.49.74v1.34h-.6Z" transform="translate(-35.42 -43.94)"/><polygon points="98.53 211.81 92.6 208.38 92.6 215.23 98.53 211.81"/><polygon points="98.53 204.95 92.6 201.52 92.6 208.38 98.53 204.95"/><polygon points="98.53 225.52 92.6 222.09 92.6 228.95 98.53 225.52"/><polygon points="98.53 218.66 92.6 215.23 92.6 222.09 98.53 218.66"/><polygon points="98.53 239.23 92.6 235.8 92.6 242.66 98.53 239.23"/><polygon points="98.53 232.37 92.6 228.95 92.6 235.8 98.53 232.37"/><path class="cls-1" d="M213.17,209.37a28.18,28.18,0,0,0-22.09-8.74c-7.07.43-13.51,3.61-17.24,8.49l-4.33-3.3c4.67-6.13,12.61-10.1,21.23-10.63a33.54,33.54,0,0,1,26.32,10.38Z" transform="translate(-35.42 -43.94)"/><path class="cls-3" d="M263.41,230.93" transform="translate(-35.42 -43.94)"/></svg>